{"title":"Chatroom 2010 DVD9rip English Klam","uid":6830819,"size":1678398281,"categoryP":"video","categoryS":"movies","magnet":"?xt=urn:btih:816656e9015475ab11742bed2992c1143e183b38&amp;dn=Chatroom+2010+DVD9rip+English+Klam&amp;tr=udp%3A%2F%2Ftracker.openbittorrent.com%3A80&amp;tr=udp%3A%2F%2Fopen.demonii.com%3A1337&amp;tr=udp%3A%2F%2Ftracker.coppersurfer.tk%3A6969&amp;tr=udp%3A%2F%2Fexodus.desync.com%3A6969","seeders":0,"leechers":1,"uploader":"Klambake","files":-1,"time":1321871581,"description":"With: Aaron Johnson, Imogen Poots and Hannah Murray\n\nVijf tieners ontmoeten elkaar tijdens het chatten. Ieder heeft zo zijn eigen redenen om met vreemden te willen praten, om even iemand anders te willen zijn. Onder leiding van ÃƒÂ©ÃƒÂ©n van hen, William, vormen ze hun eigen chatgroep. Hij moedigt ze aan om hun grenzen te verleggen, zodat ze steeds meer zichzelf durven te zijn. Behalve William zelf. Hij haat zijn werkelijke leven en compenseert dat door online een manipulatieve sociopaat te zijn. Het doelwit van zijn machtsspel: de zwakste schakel van de groep.\n\nA group of teenagers encourage each other's bad behavior in a chatroom &quot;Chelsea Teens!&quot;. \n\n------------------ Dutch Friends ------------------\nYou can find my Friends at: http://www.Film-Test.nl \n------ They got my dutch subs ----- and more ------\n\nGeneral:\n\nComplete name                    : Chatroom\\Chatroom.avi\nFormat                           : AVI\nFormat/Info                      : Audio Video Interleave\nFile size                        : 1.56 GiB\nDuration                         : 1h 33mn\nOverall bit rate                 : 2 393 Kbps\n\nVideo:\n\nFormat                           : MPEG-4 Visual\nFormat profile                   : Simple@L3\nFormat settings, BVOP            : No\nFormat settings, QPel            : No\nFormat settings, GMC             : No warppoints\nFormat settings, Matrix          : Default (H.263)\nCodec ID                         : XVID\nCodec ID/Hint                    : XviD\nDuration                         : 1h 33mn\nBit rate                         : 1 934 Kbps\nWidth                            : 652 pixels\nHeight                           : 352 pixels\nDisplay aspect ratio             : 1.852\nFrame rate                       : 25.000 fps\nColor space                      : YUV\nChroma subsampling               : 4:2:0\nBit depth                        : 8 bits\nScan type                        : Progressive\nCompression mode                 : Lossy\nBits/(Pixel*Frame)               : 0.337\nStream size                      : 1.26 GiB (81%)\nWriting library                  : XviD 1.1.2 (UTC 2006-11-01)\n\nAudio:\n\nFormat                           : AC-3\nFormat/Info                      : Audio Coding 3\nMode extension                   : CM (complete main)\nCodec ID                         : 2000\nDuration                         : 1h 33mn\nBit rate mode                    : Constant\nBit rate                         : 448 Kbps\nChannel(s)                       : 6 channels\nChannel positions                : Front: L C R, Side: L R, LFE\nSampling rate                    : 48.0 KHz\nBit depth                        : 16 bits\nCompression mode                 : Lossy\nStream size                      : 300 MiB (19%)\nAlignment                        : Aligned on interleaves\nInterleave, duration             : 32 ms (0.80 video frame)\nInterleave, preload duration     : 32 ms\n\n","torrent":{"xt":"urn:btih:816656e9015475ab11742bed2992c1143e183b38","amp;dn":"Chatroom+2010+DVD9rip+English+Klam","amp;tr":["udp%3A%2F%2Ftracker.openbittorrent.com%3A80","udp%3A%2F%2Fopen.demonii.com%3A1337","udp%3A%2F%2Ftracker.coppersurfer.tk%3A6969","udp%3A%2F%2Fexodus.desync.com%3A6969"],"infoHash":"816656e9015475ab11742bed2992c1143e183b38","infoHashBuffer":{"type":"Buffer","data":[129,102,86,233,1,84,117,171,17,116,43,237,41,146,193,20,62,24,59,56]},"announce":[],"urlList":[]}}